<?xml version="1.0" encoding="UTF-8" standalone="no"?>
<svg
   width="64"
   height="64"
   version="1"
   id="svg3"
   sodipodi:docname="drive.svg"
   inkscape:version="1.3.2 (091e20e, 2023-11-25, custom)"
   xmlns:inkscape="http://www.inkscape.org/namespaces/inkscape"
   xmlns:sodipodi="http://sodipodi.sourceforge.net/DTD/sodipodi-0.dtd"
   xmlns="http://www.w3.org/2000/svg"
   xmlns:svg="http://www.w3.org/2000/svg">
  <defs
     id="defs3" />
  <sodipodi:namedview
     id="namedview3"
     pagecolor="#ffffff"
     bordercolor="#666666"
     borderopacity="1.0"
     inkscape:showpageshadow="2"
     inkscape:pageopacity="0.0"
     inkscape:pagecheckerboard="0"
     inkscape:deskcolor="#d1d1d1"
     inkscape:zoom="5.6568542"
     inkscape:cx="22.98097"
     inkscape:cy="33.14563"
     inkscape:window-width="1920"
     inkscape:window-height="1009"
     inkscape:window-x="-8"
     inkscape:window-y="-8"
     inkscape:window-maximized="1"
     inkscape:current-layer="g5" />
  <rect
     style="opacity:0.2"
     width="56"
     height="44"
     x="-61"
     y="-54"
     rx="4"
     ry="4"
     transform="matrix(0,-1,-1,0,0,0)"
     id="rect1" />
  <rect
     style="fill:#8e8e8e"
     width="56"
     height="44"
     x="-60"
     y="-54"
     rx="4"
     ry="4"
     transform="matrix(0,-1,-1,0,0,0)"
     id="rect2" />
  <path
     style="opacity:0.5"
     d="m 22,28 h 20 v 4 H 22 Z M 32,12 42,24 H 22 Z"
     id="path2" />
  <path
     style="opacity:.2;fill:#ffffff"
     d="M 14 4 C 11.784 4 10 5.784 10 8 L 10 9 C 10 6.784 11.784 5 14 5 L 50 5 C 52.216 5 54 6.784 54 9 L 54 8 C 54 5.784 52.216 4 50 4 L 14 4 z"
     id="path3" />
  <g
     id="g5"
     transform="translate(-16.949323,26.506799)" />
</svg>
