<?xml version="1.0" encoding="UTF-8" standalone="no"?>
<svg
   width="64"
   height="64"
   version="1"
   id="svg3"
   sodipodi:docname="id-one.svg"
   inkscape:version="1.3.2 (091e20e, 2023-11-25, custom)"
   xmlns:inkscape="http://www.inkscape.org/namespaces/inkscape"
   xmlns:sodipodi="http://sodipodi.sourceforge.net/DTD/sodipodi-0.dtd"
   xmlns="http://www.w3.org/2000/svg"
   xmlns:svg="http://www.w3.org/2000/svg">
  <defs
     id="defs3" />
  <sodipodi:namedview
     id="namedview3"
     pagecolor="#ffffff"
     bordercolor="#666666"
     borderopacity="1.0"
     inkscape:showpageshadow="2"
     inkscape:pageopacity="0.0"
     inkscape:pagecheckerboard="0"
     inkscape:deskcolor="#d1d1d1"
     inkscape:zoom="8.9382717"
     inkscape:cx="36.696132"
     inkscape:cy="39.996547"
     inkscape:window-width="1920"
     inkscape:window-height="1009"
     inkscape:window-x="-8"
     inkscape:window-y="-8"
     inkscape:window-maximized="1"
     inkscape:current-layer="svg3" />
  <rect
     style="opacity:0.2"
     width="56"
     height="44"
     x="-61"
     y="-54"
     rx="4"
     ry="4"
     transform="matrix(0,-1,-1,0,0,0)"
     id="rect1" />
  <rect
     style="fill:#8e8e8e"
     width="56"
     height="44"
     x="-60"
     y="-54"
     rx="4"
     ry="4"
     transform="matrix(0,-1,-1,0,0,0)"
     id="rect2" />
  <path
     style="opacity:0.5"
     d="m 22,28 h 20 v 4 H 22 Z M 32,12 42,24 H 22 Z"
     id="path2" />
  <path
     style="opacity:.2;fill:#ffffff"
     d="M 14 4 C 11.784 4 10 5.784 10 8 L 10 9 C 10 6.784 11.784 5 14 5 L 50 5 C 52.216 5 54 6.784 54 9 L 54 8 C 54 5.784 52.216 4 50 4 L 14 4 z"
     id="path3" />
  <g
     id="g5"
     transform="translate(-16.949323,26.506799)">
    <g
       id="g4"
       transform="translate(-3.9555006,-4.5092707)">
      <circle
         style="fill:#3da7d6;fill-opacity:1;stroke-width:0.755906;stroke-linecap:round;stroke-linejoin:bevel"
         id="path4"
         cx="52.904823"
         cy="24.002472"
         r="12" />
      <circle
         style="fill:#63b3d6;fill-opacity:1;stroke-width:0.629921;stroke-linecap:round;stroke-linejoin:bevel"
         id="path4-8"
         cx="52.904823"
         cy="24.002472"
         r="10" />
    </g>
    <path
       style="font-size:21.3333px;line-height:1.25;font-family:Rockwell;-inkscape-font-specification:Rockwell"
       d="M 48.006608,24.96715 V 13.998417 h -1.979164 v -1.73958 h 3.958328 V 24.96715 h 1.885413 v 1.760414 H 46.027444 V 24.96715 Z"
       id="text4"
       aria-label="1" />
  </g>
</svg>
