<?xml version="1.0" encoding="UTF-8" standalone="no"?>
<svg
   width="64"
   height="64"
   version="1"
   id="svg3"
   sodipodi:docname="id-two.svg"
   inkscape:version="1.3.2 (091e20e, 2023-11-25, custom)"
   xmlns:inkscape="http://www.inkscape.org/namespaces/inkscape"
   xmlns:sodipodi="http://sodipodi.sourceforge.net/DTD/sodipodi-0.dtd"
   xmlns="http://www.w3.org/2000/svg"
   xmlns:svg="http://www.w3.org/2000/svg">
  <defs
     id="defs3" />
  <sodipodi:namedview
     id="namedview3"
     pagecolor="#ffffff"
     bordercolor="#666666"
     borderopacity="1.0"
     inkscape:showpageshadow="2"
     inkscape:pageopacity="0.0"
     inkscape:pagecheckerboard="0"
     inkscape:deskcolor="#d1d1d1"
     inkscape:zoom="5.6568542"
     inkscape:cx="22.98097"
     inkscape:cy="33.14563"
     inkscape:window-width="1920"
     inkscape:window-height="1009"
     inkscape:window-x="-8"
     inkscape:window-y="-8"
     inkscape:window-maximized="1"
     inkscape:current-layer="g5" />
  <rect
     style="opacity:0.2"
     width="56"
     height="44"
     x="-61"
     y="-54"
     rx="4"
     ry="4"
     transform="matrix(0,-1,-1,0,0,0)"
     id="rect1" />
  <rect
     style="fill:#8e8e8e"
     width="56"
     height="44"
     x="-60"
     y="-54"
     rx="4"
     ry="4"
     transform="matrix(0,-1,-1,0,0,0)"
     id="rect2" />
  <path
     style="opacity:0.5"
     d="m 22,28 h 20 v 4 H 22 Z M 32,12 42,24 H 22 Z"
     id="path2" />
  <path
     style="opacity:.2;fill:#ffffff"
     d="M 14 4 C 11.784 4 10 5.784 10 8 L 10 9 C 10 6.784 11.784 5 14 5 L 50 5 C 52.216 5 54 6.784 54 9 L 54 8 C 54 5.784 52.216 4 50 4 L 14 4 z"
     id="path3" />
  <g
     id="g5"
     transform="translate(-16.949323,26.506799)">
    <g
       id="g4"
       transform="translate(-3.9555006,-4.5092707)">
      <circle
         style="fill:#3da7d6;fill-opacity:1;stroke-width:0.755906;stroke-linecap:round;stroke-linejoin:bevel"
         id="path4"
         cx="52.904823"
         cy="24.002472"
         r="12" />
      <circle
         style="fill:#63b3d6;fill-opacity:1;stroke-width:0.629921;stroke-linecap:round;stroke-linejoin:bevel"
         id="path4-8"
         cx="52.904823"
         cy="24.002472"
         r="10" />
    </g>
    <path
       d="m 53.647223,21.675489 -0.135416,5.177075 h -9.260402 q 0,-1.499998 0.531249,-2.864579 0.541666,-1.364581 1.510414,-2.385413 0.979166,-1.020832 2.979162,-2.479163 1.260415,-0.927081 1.708331,-1.541664 0.447916,-0.624999 0.447916,-1.447914 0,-1.010415 -0.635416,-1.645831 -0.635415,-0.645832 -1.749997,-0.645832 -1.302081,0 -1.906247,0.729165 -0.604166,0.729166 -0.604166,2.39583 0,0.416666 0.02083,0.791665 h -1.927081 q -0.01042,-0.374999 -0.01042,-0.614582 0,-2.354163 1.114581,-3.677078 1.114582,-1.333331 3.270828,-1.333331 2.17708,0 3.333329,1.135415 1.166664,1.135415 1.166664,2.791662 0,1.385415 -0.760415,2.36458 -0.760416,0.979165 -2.906245,2.489579 -2.083331,1.479165 -2.739579,2.406246 -0.645833,0.927082 -0.749999,1.645831 h 5.458324 l 0.08333,-3.291661 z"
       id="text5"
       style="font-size:21.3333px;line-height:1.25;font-family:Rockwell;-inkscape-font-specification:Rockwell"
       aria-label="2" />
  </g>
</svg>
